<svg width="70" height="70" viewBox="0 0 70 70" fill="none" xmlns="http://www.w3.org/2000/svg">
<path d="M19.8301 31.5H11.6645C11.0203 31.5 10.498 32.0223 10.498 32.6667V44.3334C10.498 44.9777 11.0203 45.5 11.6645 45.5H19.8301C20.4743 45.5 20.9965 44.9777 20.9965 44.3334V32.6667C20.9965 32.0223 20.4743 31.5 19.8301 31.5ZM18.6636 43.1667H12.831V33.8333H18.6636V43.1667Z" fill="url(#paint0_linear_31_111)"/>
<path d="M39.6601 31.5H31.4946C30.8504 31.5 30.3281 32.0223 30.3281 32.6667V44.3334C30.3281 44.9777 30.8504 45.5 31.4946 45.5H39.6601C40.3044 45.5 40.8266 44.9777 40.8266 44.3334V32.6667C40.8266 32.0223 40.3044 31.5 39.6601 31.5ZM38.4937 43.1667H32.6612V33.8333H38.4937V43.1667Z" fill="url(#paint1_linear_31_111)"/>
<path d="M39.6601 50.166H31.4946C30.8504 50.166 30.3281 50.6884 30.3281 51.3327V62.9994C30.3281 63.6437 30.8504 64.166 31.4946 64.166H39.6601C40.3044 64.166 40.8266 63.6437 40.8266 62.9994V51.3327C40.8266 50.6885 40.3044 50.166 39.6601 50.166ZM38.4937 61.8327H32.6612V52.4993H38.4937V61.8327Z" fill="url(#paint2_linear_31_111)"/>
<path d="M58.3242 31.5H50.1587C49.5145 31.5 48.9922 32.0223 48.9922 32.6667V44.3334C48.9922 44.9777 49.5145 45.5 50.1587 45.5H58.3242C58.9684 45.5 59.4907 44.9777 59.4907 44.3334V32.6667C59.4907 32.0223 58.9684 31.5 58.3242 31.5ZM57.1577 43.1667H51.3253V33.8333H57.1577V43.1667Z" fill="url(#paint3_linear_31_111)"/>
<path d="M19.8301 50.166H11.6645C11.0203 50.166 10.498 50.6884 10.498 51.3327V62.9994C10.498 63.6437 11.0203 64.166 11.6645 64.166H19.8301C20.4743 64.166 20.9965 63.6437 20.9965 62.9994V51.3327C20.9965 50.6885 20.4743 50.166 19.8301 50.166ZM18.6636 61.8327H12.831V52.4993H18.6636V61.8327Z" fill="url(#paint4_linear_31_111)"/>
<path d="M58.3242 50.166H50.1587C49.5145 50.166 48.9922 50.6884 48.9922 51.3327V62.9994C48.9922 63.6437 49.5145 64.166 50.1587 64.166H58.3242C58.9684 64.166 59.4907 63.6437 59.4907 62.9994V51.3327C59.4907 50.6885 58.9684 50.166 58.3242 50.166ZM57.1577 61.8327H51.3253V52.4993H57.1577V61.8327Z" fill="url(#paint5_linear_31_111)"/>
<path d="M65.3239 67.667V28.0001H66.4904C67.1346 28.0001 67.6569 27.4777 67.6569 26.8334V21.0001C67.6569 20.3558 67.1346 19.8335 66.4904 19.8335H65.3239V15.1668C65.3239 14.5225 64.8017 14.0002 64.1575 14.0002H61.8245V1.16666C61.8245 0.522343 61.3022 0 60.658 0H9.33201C8.68779 0 8.16553 0.522343 8.16553 1.16666V14H5.83256C5.18834 14 4.66607 14.5224 4.66607 15.1667V19.8333H3.49959C2.85537 19.8333 2.33311 20.3557 2.33311 21V26.8333C2.33311 27.4776 2.85537 27.9999 3.49959 27.9999H4.66607V67.6667H0V70H5.83256H64.1575H70V67.6667H65.3239V67.667ZM10.4985 2.33331H59.4914V14H10.4985V2.33331ZM6.99904 16.3333H9.33201H60.6579H62.9908V19.8333H6.99904V16.3333ZM62.9908 67.667H6.99904V28.0001H62.991V67.667H62.9908ZM5.83256 25.6667H4.66607V22.1668H5.83256H64.1575H65.3239V25.6667H64.1575H5.83256Z" fill="url(#paint6_linear_31_111)"/>
<path d="M33.2023 6.32382C33.0168 5.84961 32.7562 5.44008 32.4201 5.09536C32.0842 4.75064 31.6799 4.48017 31.2076 4.28422C30.7351 4.08828 30.212 3.99023 29.638 3.99023C29.0641 3.99023 28.54 4.08732 28.0659 4.28163C27.5918 4.47593 27.1858 4.74626 26.8481 5.09276C26.5105 5.43926 26.2489 5.84961 26.0634 6.32396C25.8779 6.79817 25.7852 7.31354 25.7852 7.87007C25.7852 8.4266 25.8779 8.94197 26.0634 9.41618C26.2489 9.89039 26.5105 10.3007 26.8481 10.6474C27.1858 10.9939 27.5918 11.2642 28.0659 11.4585C28.54 11.6528 29.0641 11.7499 29.638 11.7499C30.212 11.7499 30.7351 11.6528 31.2076 11.4585C31.6801 11.2643 32.0842 10.9939 32.4201 10.6474C32.756 10.3009 33.0168 9.89052 33.2023 9.41618C33.3878 8.94197 33.4805 8.4266 33.4805 7.87007C33.4805 7.3134 33.3877 6.79803 33.2023 6.32382ZM31.8663 8.99078C31.7561 9.32155 31.5976 9.6016 31.3912 9.83077C31.1847 10.0601 30.9336 10.2359 30.6379 10.3584C30.3421 10.481 30.0088 10.5422 29.6379 10.5422C29.267 10.5422 28.9327 10.481 28.6353 10.3584C28.3378 10.2359 28.085 10.0601 27.8768 9.83077C27.6686 9.60146 27.5085 9.32155 27.3965 8.99078C27.2846 8.66001 27.2285 8.28644 27.2285 7.86993C27.2285 7.45342 27.2846 7.07985 27.3965 6.74908C27.5085 6.41831 27.6686 6.13745 27.8768 5.9065C28.085 5.67554 28.3378 5.49874 28.6353 5.37622C28.9328 5.2537 29.267 5.19244 29.6379 5.19244C30.0088 5.19244 30.3421 5.2537 30.6379 5.37622C30.9336 5.49874 31.1846 5.67554 31.3912 5.9065C31.5976 6.13745 31.7559 6.41831 31.8663 6.74908C31.9765 7.07985 32.0316 7.45342 32.0316 7.86993C32.0316 8.28644 31.9766 8.66001 31.8663 8.99078Z" fill="url(#paint7_linear_31_111)"/>
<path d="M23.2452 4.07617V7.34164H19.6862V4.07617H18.2637V11.6676H19.6862V8.34968H23.2452V11.6676H24.6677V4.07617H23.2452Z" fill="url(#paint8_linear_31_111)"/>
<path d="M47.8536 10.5021V4.07617H46.4414V11.6676H50.8928V10.5021H47.8536Z" fill="url(#paint9_linear_31_111)"/>
<path d="M33.5449 4.07617V5.2364H35.8389V11.6676H37.251V5.2364H39.5343V4.07617H33.5449Z" fill="url(#paint10_linear_31_111)"/>
<path d="M45.219 5.19962V4.07617H40.4316V11.6676H45.219V10.5389H41.8542V8.39166H44.505V7.30485H41.8542V5.19962H45.219Z" fill="url(#paint11_linear_31_111)"/>
<defs>
<linearGradient id="paint0_linear_31_111" x1="15.7473" y1="31.5" x2="15.7473" y2="45.5" gradientUnits="userSpaceOnUse">
<stop stop-color="#90E878"/>
<stop offset="1" stop-color="#29AA05"/>
</linearGradient>
<linearGradient id="paint1_linear_31_111" x1="35.5774" y1="31.5" x2="35.5774" y2="45.5" gradientUnits="userSpaceOnUse">
<stop stop-color="#90E878"/>
<stop offset="1" stop-color="#29AA05"/>
</linearGradient>
<linearGradient id="paint2_linear_31_111" x1="35.5774" y1="50.166" x2="35.5774" y2="64.166" gradientUnits="userSpaceOnUse">
<stop stop-color="#90E878"/>
<stop offset="1" stop-color="#29AA05"/>
</linearGradient>
<linearGradient id="paint3_linear_31_111" x1="54.2414" y1="31.5" x2="54.2414" y2="45.5" gradientUnits="userSpaceOnUse">
<stop stop-color="#90E878"/>
<stop offset="1" stop-color="#29AA05"/>
</linearGradient>
<linearGradient id="paint4_linear_31_111" x1="15.7473" y1="50.166" x2="15.7473" y2="64.166" gradientUnits="userSpaceOnUse">
<stop stop-color="#90E878"/>
<stop offset="1" stop-color="#29AA05"/>
</linearGradient>
<linearGradient id="paint5_linear_31_111" x1="54.2414" y1="50.166" x2="54.2414" y2="64.166" gradientUnits="userSpaceOnUse">
<stop stop-color="#90E878"/>
<stop offset="1" stop-color="#29AA05"/>
</linearGradient>
<linearGradient id="paint6_linear_31_111" x1="35" y1="0" x2="35" y2="70" gradientUnits="userSpaceOnUse">
<stop stop-color="#90E878"/>
<stop offset="1" stop-color="#29AA05"/>
</linearGradient>
<linearGradient id="paint7_linear_31_111" x1="29.6328" y1="3.99023" x2="29.6328" y2="11.7499" gradientUnits="userSpaceOnUse">
<stop stop-color="#90E878"/>
<stop offset="1" stop-color="#29AA05"/>
</linearGradient>
<linearGradient id="paint8_linear_31_111" x1="21.4657" y1="4.07617" x2="21.4657" y2="11.6676" gradientUnits="userSpaceOnUse">
<stop stop-color="#90E878"/>
<stop offset="1" stop-color="#29AA05"/>
</linearGradient>
<linearGradient id="paint9_linear_31_111" x1="48.6671" y1="4.07617" x2="48.6671" y2="11.6676" gradientUnits="userSpaceOnUse">
<stop stop-color="#90E878"/>
<stop offset="1" stop-color="#29AA05"/>
</linearGradient>
<linearGradient id="paint10_linear_31_111" x1="36.5396" y1="4.07617" x2="36.5396" y2="11.6676" gradientUnits="userSpaceOnUse">
<stop stop-color="#90E878"/>
<stop offset="1" stop-color="#29AA05"/>
</linearGradient>
<linearGradient id="paint11_linear_31_111" x1="42.8253" y1="4.07617" x2="42.8253" y2="11.6676" gradientUnits="userSpaceOnUse">
<stop stop-color="#90E878"/>
<stop offset="1" stop-color="#29AA05"/>
</linearGradient>
</defs>
</svg>
